<svg width="48" height="46" viewBox="0 0 48 46" fill="none" xmlns="http://www.w3.org/2000/svg">
<path d="M43.5 23H4.5C3.30653 23 2.16193 23.5193 1.31802 24.4435C0.474106 25.3678 0 26.6214 0 27.9286C0 29.2357 0.474106 30.4893 1.31802 31.4136C2.16193 32.3379 3.30653 32.8571 4.5 32.8571H43.5C44.6935 32.8571 45.8381 32.3379 46.682 31.4136C47.5259 30.4893 48 29.2357 48 27.9286C48 26.6214 47.5259 25.3678 46.682 24.4435C45.8381 23.5193 44.6935 23 43.5 23V23ZM45 36.1429H3C2.60218 36.1429 2.22064 36.3159 1.93934 36.624C1.65804 36.9321 1.5 37.35 1.5 37.7857V39.4286C1.5 41.1714 2.13214 42.8429 3.25736 44.0753C4.38258 45.3077 5.9087 46 7.5 46H40.5C42.0913 46 43.6174 45.3077 44.7426 44.0753C45.8679 42.8429 46.5 41.1714 46.5 39.4286V37.7857C46.5 37.35 46.342 36.9321 46.0607 36.624C45.7794 36.3159 45.3978 36.1429 45 36.1429ZM5.4975 19.7143H42.5025C45.7434 19.7143 47.6231 15.2067 45.7669 11.923C42 5.25714 33.7078 0.0102679 24 0C14.2931 0.0102679 6 5.25714 2.23312 11.922C0.375 15.2057 2.25656 19.7143 5.4975 19.7143ZM36 8.21429C36.2967 8.21429 36.5867 8.31064 36.8334 8.49116C37.08 8.67168 37.2723 8.92826 37.3858 9.22845C37.4994 9.52864 37.5291 9.85897 37.4712 10.1776C37.4133 10.4963 37.2704 10.7891 37.0607 11.0188C36.8509 11.2486 36.5836 11.405 36.2926 11.4684C36.0017 11.5318 35.7001 11.4993 35.426 11.3749C35.1519 11.2506 34.9176 11.04 34.7528 10.7699C34.588 10.4997 34.5 10.1821 34.5 9.85714C34.5 9.42143 34.658 9.00356 34.9393 8.69547C35.2206 8.38737 35.6022 8.21429 36 8.21429V8.21429ZM24 4.92857C24.2967 4.92857 24.5867 5.02492 24.8334 5.20544C25.08 5.38596 25.2723 5.64254 25.3858 5.94273C25.4994 6.24293 25.5291 6.57325 25.4712 6.89193C25.4133 7.21062 25.2704 7.50335 25.0607 7.7331C24.8509 7.96286 24.5836 8.11933 24.2926 8.18272C24.0017 8.24611 23.7001 8.21358 23.426 8.08923C23.1519 7.96489 22.9176 7.75432 22.7528 7.48415C22.588 7.21398 22.5 6.89636 22.5 6.57143C22.5 6.13572 22.658 5.71785 22.9393 5.40975C23.2206 5.10166 23.6022 4.92857 24 4.92857V4.92857ZM12 8.21429C12.2967 8.21429 12.5867 8.31064 12.8334 8.49116C13.08 8.67168 13.2723 8.92826 13.3858 9.22845C13.4994 9.52864 13.5291 9.85897 13.4712 10.1776C13.4133 10.4963 13.2704 10.7891 13.0607 11.0188C12.8509 11.2486 12.5836 11.405 12.2926 11.4684C12.0017 11.5318 11.7001 11.4993 11.426 11.3749C11.1519 11.2506 10.9176 11.04 10.7528 10.7699C10.588 10.4997 10.5 10.1821 10.5 9.85714C10.5 9.42143 10.658 9.00356 10.9393 8.69547C11.2206 8.38737 11.6022 8.21429 12 8.21429V8.21429Z" fill="#F7CC49"/>
</svg>
