<svg width="46" height="50" viewBox="0 0 46 50" fill="none" xmlns="http://www.w3.org/2000/svg">
<path d="M45.3827 1.86521C45.3249 1.57297 45.1907 1.30508 44.9962 1.09373C44.8017 0.882381 44.5552 0.736568 44.2863 0.673819C41.3925 0 39.1287 0 36.8731 0C27.5987 0 22.0359 5.39055 17.8849 12.4998H8.52064C7.7209 12.5006 6.93711 12.7429 6.25678 13.1997C5.57645 13.6565 5.02638 14.3098 4.668 15.0867L0.226726 24.735C0.0627106 25.0924 -0.0145308 25.4895 0.0023328 25.8884C0.0191964 26.2874 0.129605 26.6751 0.323081 27.0146C0.516558 27.3542 0.786682 27.6344 1.10782 27.8287C1.42895 28.0229 1.79045 28.1248 2.15799 28.1246H11.4836L9.46425 30.3189C8.92507 30.9049 8.62217 31.6997 8.62217 32.5284C8.62217 33.357 8.92507 34.1518 9.46425 34.7378L14.0385 39.7094C14.3056 39.9997 14.6226 40.2299 14.9716 40.387C15.3205 40.5441 15.6945 40.6249 16.0722 40.6249C16.4499 40.6249 16.8239 40.5441 17.1729 40.387C17.5218 40.2299 17.8389 39.9997 18.1059 39.7094L20.1253 37.5151V47.6556C20.1252 48.0548 20.2189 48.4475 20.3976 48.7963C20.5764 49.1452 20.8341 49.4386 21.1465 49.6488C21.4589 49.859 21.8155 49.9791 22.1825 49.9975C22.5495 50.0159 22.9148 49.9322 23.2437 49.7542L32.1137 44.931C32.8298 44.5423 33.432 43.9443 33.8526 43.2043C34.2733 42.4643 34.4958 41.6115 34.4952 40.7416V30.5455C41.0187 26.024 45.9982 19.9597 45.9982 9.9315C46.0072 7.4706 46.0072 5.0097 45.3827 1.86521V1.86521ZM34.5041 16.406C33.7932 16.406 33.0982 16.1769 32.507 15.7477C31.9159 15.3185 31.4551 14.7084 31.1831 13.9947C30.911 13.2809 30.8398 12.4955 30.9785 11.7378C31.1172 10.98 31.4596 10.284 31.9623 9.73773C32.465 9.19144 33.1055 8.81941 33.8028 8.66869C34.5002 8.51796 35.2229 8.59532 35.8798 8.89097C36.5366 9.18662 37.098 9.68729 37.493 10.3297C37.888 10.972 38.0989 11.7273 38.0989 12.4998C38.0989 13.5358 37.7201 14.5294 37.046 15.2619C36.3719 15.9945 35.4575 16.406 34.5041 16.406V16.406Z" fill="#3E3E3E"/>
</svg>
