<svg width="44" height="48" viewBox="0 0 44 48" fill="none" xmlns="http://www.w3.org/2000/svg">
<path d="M41.2501 0H2.75006C1.23756 0 6.10352e-05 1.0125 6.10352e-05 2.25V6.75C6.10352e-05 7.9875 1.23756 9 2.75006 9H41.2501C42.7626 9 44.0001 7.9875 44.0001 6.75V2.25C44.0001 1.0125 42.7626 0 41.2501 0ZM3.66673 45C3.66673 46.65 5.31673 48 7.33339 48H36.6667C38.6834 48 40.3334 46.65 40.3334 45V12H3.66673V45ZM11.0001 27.75C11.0001 27.3375 11.4126 27 11.9167 27H18.3334V21.75C18.3334 21.3375 18.7459 21 19.2501 21H24.7501C25.2542 21 25.6667 21.3375 25.6667 21.75V27H32.0834C32.5876 27 33.0001 27.3375 33.0001 27.75V32.25C33.0001 32.6625 32.5876 33 32.0834 33H25.6667V38.25C25.6667 38.6625 25.2542 39 24.7501 39H19.2501C18.7459 39 18.3334 38.6625 18.3334 38.25V33H11.9167C11.4126 33 11.0001 32.6625 11.0001 32.25V27.75Z" fill="#F7CC49"/>
</svg>
