<svg width="48" height="46" viewBox="0 0 48 46" fill="none" xmlns="http://www.w3.org/2000/svg">
<path d="M48 18.893V20.5359C48 21.8969 47.1046 23.0001 46 23.0001H45.3334L43.1573 41.7684C42.8758 44.1965 41.1881 46 39.1975 46H8.8025C6.81192 46 5.12425 44.1965 4.84267 41.7684L2.66667 23.0001H2C0.895417 23.0001 0 21.8969 0 20.5359V18.893C0 17.532 0.895417 16.4288 2 16.4288H7.61175L16.5101 1.35348C17.3763 -0.113989 19.044 -0.438555 20.2352 0.628782C21.4263 1.69612 21.6896 3.75101 20.8233 5.21859L14.2064 16.4288H33.7936L27.1767 5.21849C26.3104 3.75101 26.5738 1.69602 27.7649 0.62868C28.9558 -0.438657 30.6238 -0.114195 31.49 1.35338L40.3883 16.4288H46C47.1046 16.4288 48 17.532 48 18.893ZM26 36.9643V25.4644C26 24.1034 25.1046 23.0001 24 23.0001C22.8954 23.0001 22 24.1034 22 25.4644V36.9643C22 38.3253 22.8954 39.4286 24 39.4286C25.1046 39.4286 26 38.3253 26 36.9643ZM35.3334 36.9643V25.4644C35.3334 24.1034 34.4379 23.0001 33.3333 23.0001C32.2288 23.0001 31.3333 24.1034 31.3333 25.4644V36.9643C31.3333 38.3253 32.2288 39.4286 33.3333 39.4286C34.4379 39.4286 35.3334 38.3253 35.3334 36.9643ZM16.6667 36.9643V25.4644C16.6667 24.1034 15.7713 23.0001 14.6667 23.0001C13.5621 23.0001 12.6667 24.1034 12.6667 25.4644V36.9643C12.6667 38.3253 13.5621 39.4286 14.6667 39.4286C15.7713 39.4286 16.6667 38.3253 16.6667 36.9643Z" fill="#F7CC49"/>
</svg>
