<svg width="52" height="57" viewBox="0 0 52 57" fill="none" xmlns="http://www.w3.org/2000/svg">
<path d="M51.5238 8.07896L44.6296 0.521861C43.9948 -0.173954 42.966 -0.173954 42.3312 0.521861L40.0328 3.04127C39.398 3.73708 39.398 4.86486 40.0328 5.56067L32.2459 14.0964C27.515 11.9032 21.8457 12.9018 17.9893 17.1279L1.90357 34.7604C-0.634522 37.5425 -0.634522 42.0547 1.90357 44.8369L11.0961 54.9134C13.6342 57.6955 17.7506 57.6955 20.2887 54.9134L36.3755 37.2798C40.2308 33.0537 41.1419 26.8381 39.1411 21.6524L46.928 13.1167C47.5628 13.8125 48.5916 13.8125 49.2264 13.1167L51.5248 10.5973C52.1585 9.90255 52.1585 8.77478 51.5238 8.07896V8.07896ZM18.2016 47.1247L9.009 37.0482L21.4039 23.4615L30.5965 33.538L18.2016 47.1247V47.1247Z" fill="#3E3E3E"/>
</svg>
